<svg width="37" height="47" viewBox="0 0 37 47" fill="none" xmlns="http://www.w3.org/2000/svg">
<path fill-rule="evenodd" clip-rule="evenodd" d="M29.9584 14.334C31.2241 14.334 32.2501 15.36 32.2501 16.6257V39.5423C32.2501 43.3393 29.172 46.4173 25.3751 46.4173H11.6251C7.82812 46.4173 4.75008 43.3393 4.75008 39.5423V16.6257C4.75008 15.36 5.77609 14.334 7.04175 14.334H29.9584ZM27.6667 18.9173H9.33342V39.5423C9.33342 40.808 10.3594 41.834 11.6251 41.834H25.3751C26.6407 41.834 27.6667 40.808 27.6667 39.5423V18.9173ZM11.6251 2.87565C11.6251 1.61 12.6511 0.583984 13.9167 0.583984H23.0834C24.3491 0.583984 25.3751 1.61 25.3751 2.87565V5.16732H34.5417C35.8074 5.16732 36.8334 6.19333 36.8334 7.45898C36.8334 8.72464 35.8074 9.75065 34.5417 9.75065H2.45841C1.19276 9.75065 0.166748 8.72464 0.166748 7.45898C0.166748 6.19333 1.19276 5.16732 2.45841 5.16732H11.6251V2.87565Z" fill="#FF0009"/>
</svg>
