<svg width="24" height="24" viewBox="0 0 24 24" fill="none" xmlns="http://www.w3.org/2000/svg">
<path fill-rule="evenodd" clip-rule="evenodd" d="M10.8335 0.333984C12.7665 0.333984 14.3335 1.90099 14.3335 3.83398L14.3336 5.19977C14.6985 5.07082 15.0911 5.00065 15.5002 5.00065H20.1668C22.0998 5.00065 23.6668 6.56765 23.6668 8.50065V20.1673C23.6668 22.1003 22.0998 23.6673 20.1668 23.6673H3.8335C1.9005 23.6673 0.333496 22.1003 0.333496 20.1673V3.83398C0.333496 1.90099 1.9005 0.333984 3.8335 0.333984H10.8335ZM10.8335 2.66732H3.8335C3.18916 2.66732 2.66683 3.18965 2.66683 3.83398V20.1673C2.66683 20.8116 3.18916 21.334 3.8335 21.334H12.0002V3.83398C12.0002 3.18965 11.4778 2.66732 10.8335 2.66732ZM20.1668 7.33398H15.5002C14.8558 7.33398 14.3335 7.85632 14.3335 8.50065V21.334H20.1668C20.8112 21.334 21.3335 20.8116 21.3335 20.1673V8.50065C21.3335 7.85632 20.8112 7.33398 20.1668 7.33398ZM8.50016 14.334C9.14449 14.334 9.66683 14.8563 9.66683 15.5007C9.66683 16.145 9.14449 16.6673 8.50016 16.6673H6.16683C5.5225 16.6673 5.00016 16.145 5.00016 15.5007C5.00016 14.8563 5.5225 14.334 6.16683 14.334H8.50016ZM19.0002 14.334C19.6445 14.334 20.1668 14.8563 20.1668 15.5007C20.1668 16.145 19.6445 16.6673 19.0002 16.6673H16.6668C16.0225 16.6673 15.5002 16.145 15.5002 15.5007C15.5002 14.8563 16.0225 14.334 16.6668 14.334H19.0002ZM8.50016 9.66732C9.14449 9.66732 9.66683 10.1897 9.66683 10.834C9.66683 11.4783 9.14449 12.0007 8.50016 12.0007H6.16683C5.5225 12.0007 5.00016 11.4783 5.00016 10.834C5.00016 10.1897 5.5225 9.66732 6.16683 9.66732H8.50016ZM19.0002 9.66732C19.6445 9.66732 20.1668 10.1897 20.1668 10.834C20.1668 11.4783 19.6445 12.0007 19.0002 12.0007H16.6668C16.0225 12.0007 15.5002 11.4783 15.5002 10.834C15.5002 10.1897 16.0225 9.66732 16.6668 9.66732H19.0002ZM8.50016 5.00065C9.14449 5.00065 9.66683 5.52299 9.66683 6.16732C9.66683 6.81165 9.14449 7.33398 8.50016 7.33398H6.16683C5.5225 7.33398 5.00016 6.81165 5.00016 6.16732C5.00016 5.52299 5.5225 5.00065 6.16683 5.00065H8.50016Z" fill="#2C2A3B"/>
</svg>
