<svg width="20" height="16" viewBox="0 0 20 16" fill="none" xmlns="http://www.w3.org/2000/svg">
<path fill-rule="evenodd" clip-rule="evenodd" d="M3.63604 1.56529L8.60723 6.53563C8.96734 6.18768 9.45854 5.97347 10 5.97347C11.1046 5.97347 12 6.86494 12 7.96462C12 8.50712 11.7821 8.99894 11.4287 9.35806L16.364 14.2932C16.7545 14.6837 16.7545 15.3169 16.364 15.7074C15.9734 16.0979 15.3403 16.0979 14.9497 15.7074L14.0498 14.8084C12.7649 15.5525 11.4151 15.9292 10 15.9292C6.41439 15.9292 3.2486 13.5106 0.493912 8.82611L0.282823 8.4613L0 7.96462L0.282823 7.46795C1.12423 5.99032 2.00457 4.72699 2.92408 3.68241L2.22183 2.9795C1.8313 2.58897 1.8313 1.95581 2.22183 1.56529C2.61235 1.17476 3.24551 1.17476 3.63604 1.56529ZM2.54572 7.56902L2.30532 7.96462L2.51336 8.30789C4.87517 12.1384 7.37415 13.9381 10 13.9381C10.8728 13.9381 11.7313 13.7396 12.575 13.3343L8.79638 9.55498C8.64526 9.44144 8.51083 9.30704 8.39742 9.15609L4.33749 5.09402C3.73183 5.79538 3.13452 6.61919 2.54572 7.56902ZM10 0C13.5856 0 16.7514 2.41863 19.5061 7.10313L19.7172 7.46795L20 7.96462L19.5113 8.81732C18.7425 10.1258 17.9416 11.2576 17.1086 12.2096L15.6965 10.7975C16.3734 10.0081 17.0396 9.06542 17.6948 7.96475C15.2718 3.89826 12.7031 1.99116 10 1.99116C9.14371 1.99116 8.30092 2.18253 7.47198 2.5733L5.99438 1.09542C7.26603 0.368164 8.60106 0 10 0Z" fill="#353F50"/>
</svg>
