<svg width="130" height="68" viewBox="0 0 130 68" fill="none" xmlns="http://www.w3.org/2000/svg">
<path d="M122.798 19.5817H81.5547L87.932 5.37501C88.5853 3.7861 89.6997 2.42644 91.1332 1.46922C92.5667 0.511999 94.2545 0.000541989 95.9814 0H124.123C124.853 -9.31199e-07 125.575 0.14298 126.249 0.420761C126.923 0.698541 127.536 1.10567 128.051 1.61886C128.567 2.13204 128.975 2.74122 129.254 3.41153C129.532 4.08183 129.675 4.80012 129.673 5.5253V12.7126C129.676 14.529 128.953 16.2722 127.664 17.5599C126.376 18.8476 124.626 19.5746 122.798 19.5817Z" fill="url(#paint0_linear_30639_32728)"/>
<path d="M60.5532 45.643H28.1152C27.9773 45.6452 27.84 45.663 27.7061 45.696C26.9226 45.8402 26.2216 46.2703 25.7409 46.902C25.2602 47.5336 25.0344 48.321 25.108 49.1096C25.1815 49.8982 25.549 50.631 26.1384 51.1641C26.7277 51.6971 27.4963 51.9918 28.2931 51.9904H29.9653C32.4379 51.9904 34.6971 54.4216 35.7644 56.6405L37.9258 61.1226C38.7834 63.1692 40.234 64.9159 42.0932 66.1406C43.9524 67.3653 46.1362 68.0127 48.3666 68.0004C50.597 67.9881 52.7733 67.3166 54.6187 66.0714C56.4641 64.8262 57.8952 63.0636 58.7298 61.0077L58.8277 60.8309C59.4414 59.7435 63.6129 49.8775 63.6129 49.8775C63.7653 49.4292 63.8172 48.9532 63.765 48.4828C63.7127 48.0125 63.5576 47.5592 63.3104 47.1547C63.0329 46.7114 62.6501 46.3426 62.1958 46.0806C61.7414 45.8185 61.2293 45.6713 60.7044 45.6518H60.5621L60.5532 45.643ZM3.32651 22.8787C2.44426 22.8787 1.59815 23.2271 0.974313 23.8471C0.350471 24.4672 0 25.3082 0 26.1851C0 27.062 0.350471 27.9029 0.974313 28.523C1.59815 29.1431 2.44426 29.4914 3.32651 29.4914H7.4802C8.33154 29.4476 9.13347 29.0806 9.72048 28.4662C10.3075 27.8518 10.6348 27.0368 10.6348 26.1895C10.6348 25.3422 10.3075 24.5272 9.72048 23.9128C9.13347 23.2983 8.33154 22.9314 7.4802 22.8876H3.32651V22.8787ZM69.501 22.8787H51.7121C51.6559 22.8774 51.6006 22.8927 51.5531 22.9225C51.5056 22.9524 51.4681 22.9956 51.4453 23.0467L48.4746 29.8185C48.4511 29.8693 48.4136 29.9123 48.3663 29.9425C48.319 29.9727 48.2639 29.9887 48.2077 29.9887C48.1515 29.9887 48.0965 29.9727 48.0492 29.9425C48.0019 29.9123 47.9643 29.8693 47.9409 29.8185L47.2738 28.6339C47.1671 28.4482 47.0692 28.2537 46.9536 28.0769C46.3511 27.0659 45.5744 26.1682 44.6589 25.4248C42.8313 23.8963 40.5437 23.016 38.157 22.9229H17.3797C16.5839 22.9307 15.8199 23.2344 15.2382 23.7741C14.6564 24.3139 14.2991 25.0506 14.2366 25.8392C14.1741 26.6277 14.411 27.4109 14.9006 28.0346C15.3901 28.6582 16.0969 29.077 16.8816 29.2085C17.0398 29.2709 17.2098 29.298 17.3797 29.2881H20.3593C23.0276 29.2881 24.7265 31.6485 25.8739 34.0177L26.0873 34.4774L27.5994 37.5628C27.6883 37.7749 27.8662 38.1109 28.0352 38.4468C28.2042 38.7827 28.3643 39.0656 28.5511 39.3309C28.6661 39.5303 28.7938 39.7222 28.9335 39.9055C30.5345 41.9565 33.3807 42.372 36.1736 42.372H66.8593C68.825 37.9517 70.933 33.0453 73.0231 28.2272C73.3691 27.5903 73.578 26.8888 73.6369 26.1674C73.6488 25.7444 73.5752 25.3233 73.4205 24.9291C73.2658 24.5348 73.0331 24.1754 72.7363 23.8721C72.4394 23.5688 72.0843 23.3277 71.6921 23.1632C71.2999 22.9986 70.8784 22.9139 70.4527 22.9141H69.501V22.8787ZM3.07747 0.123335C2.29234 0.157105 1.54732 0.477458 0.98499 1.02309C0.422658 1.56872 0.0825102 2.3013 0.029651 3.08063C-0.0232083 3.85995 0.214931 4.63128 0.698493 5.24699C1.18205 5.8627 1.87708 6.27955 2.65054 6.41776C2.65054 6.41776 2.81063 6.47964 3.07747 6.48848H9.95285C12.6212 6.48848 14.9604 8.85773 16.0989 11.2358L16.2857 11.6602C16.6681 12.5442 17.104 13.5697 17.5754 14.6571L17.6198 14.7632C19.3987 18.7767 22.067 19.5724 26.5142 19.5724H43.5382L38.0681 7.24876L37.7212 6.4708C37.517 6.00192 37.2761 5.54967 37.0008 5.1182C36.0178 3.58607 34.6628 2.32441 33.0605 1.44941L32.9271 1.37868L32.7848 1.3168C32 0.937424 31.1771 0.641113 30.33 0.432751C29.7475 0.281911 29.1518 0.187176 28.5511 0.149856L3.07747 0.123335ZM56.6129 0.123335C57.4427 0.148618 58.23 0.494122 58.8078 1.08659C59.3856 1.67907 59.7086 2.47192 59.7082 3.29707C59.7085 3.75601 59.6051 4.20916 59.4058 4.62314L59.3524 4.76459C59.3524 4.76459 58.463 6.77137 58.463 6.80674L52.9218 19.5812H76.7677C79.2403 13.9322 81.5529 8.64556 83.3318 4.40213C83.518 3.922 83.5829 3.40381 83.5208 2.89296C83.4587 2.38211 83.2716 1.89418 82.9758 1.4719C82.68 1.04962 82.2845 0.705874 81.824 0.470768C81.3635 0.235661 80.852 0.116369 80.3344 0.123335H56.6129Z" fill="url(#paint1_linear_30639_32728)"/>
<path d="M105.57 11.9903C105.57 14.1474 103.702 15.5707 101.371 15.5707H96.3193L98.285 4.58203H103.141C104.814 4.58203 105.863 5.54564 105.863 7.01316C105.862 7.60058 105.69 8.1751 105.366 8.66651C105.042 9.15791 104.581 9.54492 104.04 9.78023C104.494 9.9453 104.885 10.2467 105.159 10.6427C105.433 11.0388 105.577 11.5097 105.57 11.9903ZM103.444 11.9903C103.444 11.2301 102.883 10.7704 101.923 10.7704H99.2545L98.7208 13.8203H101.247C102.634 13.838 103.435 13.0777 103.435 12.008L103.444 11.9903ZM100.073 6.29709L99.5925 9.04647H101.656C102.866 9.04647 103.657 8.39228 103.657 7.36678C103.657 6.69491 103.159 6.29709 102.279 6.29709H100.073Z" fill="white"/>
<path d="M108.887 4.58203H110.977L109.02 15.5707H106.921L108.887 4.58203Z" fill="white"/>
<path d="M121.401 5.86504L114.09 13.8215H120.103L119.791 15.5896H110.853L111.075 14.2812L118.368 6.32474H112.614L112.925 4.55664H121.641L121.401 5.86504Z" fill="white"/>
<defs>
<linearGradient id="paint0_linear_30639_32728" x1="81.5814" y1="9.78641" x2="129.7" y2="9.78641" gradientUnits="userSpaceOnUse">
<stop stop-color="#C11D82"/>
<stop offset="0.14" stop-color="#C21D7F"/>
<stop offset="0.25" stop-color="#C51D75"/>
<stop offset="0.35" stop-color="#CA1E65"/>
<stop offset="0.44" stop-color="#D21E4F"/>
<stop offset="0.52" stop-color="#DB1F31"/>
<stop offset="0.57" stop-color="#E31F1A"/>
<stop offset="0.7" stop-color="#EA5118"/>
<stop offset="0.84" stop-color="#F17E16"/>
<stop offset="0.94" stop-color="#F59A14"/>
<stop offset="1" stop-color="#F6A414"/>
</linearGradient>
<linearGradient id="paint1_linear_30639_32728" x1="6416.56" y1="-7405.22" x2="14269.7" y2="-7405.22" gradientUnits="userSpaceOnUse">
<stop stop-color="#C11D82"/>
<stop offset="0.14" stop-color="#C21D7F"/>
<stop offset="0.25" stop-color="#C51D75"/>
<stop offset="0.35" stop-color="#CA1E65"/>
<stop offset="0.44" stop-color="#D21E4F"/>
<stop offset="0.52" stop-color="#DB1F31"/>
<stop offset="0.57" stop-color="#E31F1A"/>
<stop offset="0.7" stop-color="#EA5118"/>
<stop offset="0.84" stop-color="#F17E16"/>
<stop offset="0.94" stop-color="#F59A14"/>
<stop offset="1" stop-color="#F6A414"/>
</linearGradient>
</defs>
</svg>
